<svg width="81" height="40" viewBox="0 0 81 40" fill="none" xmlns="http://www.w3.org/2000/svg">
<path fill-rule="evenodd" clip-rule="evenodd" d="M62.4345 21.3792C62.5179 21.0859 62.5202 21.0844 62.8274 21.1346C62.9981 21.1621 64.1102 21.4098 65.299 21.6849C66.4885 21.9607 67.5035 22.1992 67.5558 22.2152C67.6082 22.232 67.6681 22.3394 67.6886 22.4545C67.7091 22.5703 67.81 23.1616 67.9124 23.769C68.0148 24.3771 68.2568 25.7998 68.4502 26.9314C68.6437 28.063 68.9676 29.9665 69.1709 31.1606C69.3735 32.3554 69.777 34.6872 70.0668 36.3423C70.3574 37.9982 70.6146 39.4986 70.6396 39.6761C70.676 39.9337 70.6616 40 70.5713 40C70.5091 40 69.7831 39.8095 68.9593 39.5764C68.1354 39.3432 67.2987 39.1199 67.1007 39.081C66.9027 39.0414 66.7266 38.9842 66.71 38.9522C66.6932 38.9208 66.6053 38.3638 66.5143 37.7139C66.424 37.0647 66.3224 36.4818 66.2898 36.4185C66.2503 36.3431 65.7837 36.2097 64.9113 36.0245C64.1853 35.8706 63.5678 35.7677 63.5382 35.7959C63.5094 35.8241 63.429 36.2074 63.36 36.6471C63.2917 37.0876 63.2181 37.5844 63.1969 37.752C63.1756 37.9197 63.1536 38.066 63.1475 38.0766C63.1422 38.0881 62.7614 38.0264 62.3025 37.9395C61.8435 37.8534 60.99 37.6903 59.3439 37.371L59.3636 36.99C59.3742 36.7805 59.5684 35.7007 59.7953 34.5897C60.0221 33.4794 60.6896 30.1189 61.2791 27.1219C61.8685 24.1256 62.3882 21.5408 62.4345 21.3792ZM66.5015 25.7182C66.4894 25.6763 66.4241 25.9849 66.3566 26.404C66.2891 26.8232 66.1662 27.5433 66.0843 28.0043C66.0016 28.4653 65.8476 29.4079 65.7421 30.0998C65.636 30.7914 65.5564 31.3627 65.5654 31.3709C65.5745 31.3785 65.8976 31.4562 66.2838 31.5423C66.6698 31.6292 67.0537 31.7001 67.1372 31.7001C67.2442 31.7001 67.289 31.649 67.2897 31.5286C67.2897 31.4341 67.1531 30.3627 66.9855 29.1473C66.8186 27.9319 66.6456 26.6799 66.6024 26.3659C66.5591 26.0512 66.5136 25.7602 66.5015 25.7182Z" fill="#FC042E"/>
<path fill-rule="evenodd" clip-rule="evenodd" d="M16.2547 21.2589C16.505 21.2193 17.0004 21.201 17.3546 21.2178C17.7097 21.2345 18.2043 21.3115 18.4546 21.3877C18.705 21.4646 19.0638 21.6162 19.2512 21.7252C19.4393 21.8342 19.7549 22.0986 19.9529 22.3127C20.1509 22.5268 20.4141 22.917 20.5378 23.1784C20.6614 23.4405 20.8155 23.8604 20.8807 24.1119C20.9452 24.3633 21.0316 24.8609 21.0726 25.2168C21.1135 25.5734 21.147 27.1767 21.147 28.7793C21.1477 30.3825 21.112 32.0285 21.0688 32.4369C21.0248 32.8461 20.9209 33.4375 20.8367 33.7514C20.7533 34.0661 20.5499 34.6064 20.3853 34.9516C20.2207 35.2976 19.915 35.786 19.7063 36.0375C19.4977 36.289 19.1306 36.6494 18.8908 36.8384C18.6511 37.0273 18.199 37.3146 17.8857 37.4762C17.5731 37.6377 17.0777 37.8587 16.7857 37.967C16.4936 38.0759 15.7084 38.3182 15.0409 38.5057C14.3733 38.6931 13.2126 39.0208 12.4616 39.2326C11.7106 39.4452 11.0703 39.619 11.0392 39.619C11.0081 39.6184 10.9906 35.7881 11.0202 22.5947L11.3616 22.4933C11.5497 22.4369 12.6247 22.1527 13.7512 21.8616C14.8778 21.5698 16.0043 21.2993 16.2547 21.2589ZM17.505 23.7065C17.3692 23.7103 17.0877 23.7529 16.8791 23.8017L16.4998 23.8901L16.4619 33.7575C16.9618 33.6859 17.2744 33.5914 17.4784 33.5015C17.6833 33.4116 17.9647 33.2096 18.1043 33.0527C18.2439 32.8957 18.4161 32.5871 18.4859 32.3668C18.5944 32.0262 18.6179 31.5027 18.6437 28.8425C18.6642 26.6921 18.6459 25.5285 18.5845 25.1086C18.5352 24.7733 18.4305 24.3702 18.3508 24.2132C18.2719 24.0563 18.1043 23.8764 17.9791 23.8132C17.8539 23.7499 17.6407 23.7019 17.505 23.7065Z" fill="#FC042E"/>
<path d="M46.4664 18.9385C46.9147 18.9667 48.0132 19.0452 50.5334 19.2357L50.7799 20.4549C50.9157 21.1255 51.2161 22.6511 51.4475 23.8459C51.6796 25.04 51.9125 26.2311 51.9649 26.4917C52.018 26.753 52.0831 26.9411 52.1097 26.9108C52.1363 26.8803 52.2114 26.6326 52.2766 26.3606C52.3419 26.0878 52.5315 25.248 52.6984 24.4936C52.8653 23.7392 53.1574 22.4019 53.3485 21.5218C53.5397 20.6416 53.7248 19.8529 53.7612 19.7691C53.8196 19.632 53.8705 19.622 54.271 19.6708C54.516 19.7005 55.484 19.8301 56.4232 19.9589C57.3616 20.0876 58.2067 20.2088 58.4715 20.2644L58.4684 37.2194L58.1096 37.163C57.9124 37.1326 57.6484 37.0891 57.5232 37.067C57.398 37.0449 56.7493 36.9473 54.868 36.673L54.8301 32.2982C54.7998 28.7984 54.7747 27.999 54.7065 28.3037C54.6587 28.5133 54.4652 29.2677 54.2763 29.9802C54.0874 30.6927 53.74 32.03 53.5041 32.9521C53.2689 33.8741 52.967 35.0149 52.5922 36.3477L51.9853 36.2981C51.5575 36.263 51.3496 36.212 51.2821 36.1243C51.2298 36.0558 51.1865 35.9483 51.1873 35.8858C51.1872 35.8223 50.8997 34.4851 50.547 32.914C50.1942 31.3419 49.7853 29.5672 49.6374 28.9705C49.4895 28.3731 49.3681 27.816 49.3681 27.7322C49.3681 27.6484 49.3423 27.5936 49.3112 27.6103C49.282 27.6263 49.2476 29.2774 49.2315 31.3604L49.2256 32.2044C49.2092 34.2879 49.1726 35.942 49.1413 35.962C49.107 35.9826 48.4357 35.9598 47.6491 35.9102C46.8632 35.8607 46.0916 35.818 45.6509 35.8096V18.8875L46.4664 18.9385Z" fill="#FC042E"/>
<path fill-rule="evenodd" clip-rule="evenodd" d="M28.1649 19.3591C28.4569 19.3569 28.969 19.4042 29.3028 19.4651C29.6366 19.5261 30.1486 19.6907 30.4407 19.8309C30.7328 19.9718 31.1272 20.2378 31.3169 20.4229C31.5073 20.6081 31.7713 20.9823 31.9041 21.2543C32.0368 21.5271 32.2045 21.9897 32.2766 22.283C32.3775 22.6953 32.407 23.1373 32.404 24.2262C32.4017 25.2458 32.3653 25.8051 32.272 26.2455C32.2022 26.5808 32.0255 27.1043 31.8806 27.4076C31.7289 27.7246 31.4633 28.1155 31.2562 28.3251C31.0582 28.5263 30.7806 28.7747 30.3831 29.065L30.7768 30.208C30.993 30.8367 31.2236 31.4882 31.2888 31.6559C31.3541 31.8235 31.5202 32.2868 31.6575 32.6846C31.7956 33.0831 32.0983 33.9488 32.3312 34.6087C32.5785 35.3105 32.7234 35.8249 32.6786 35.847C32.6369 35.8683 32.3721 35.9049 32.0907 35.9285C31.8092 35.9529 30.9353 36.0299 30.1494 36.1C29.3635 36.1709 28.7088 36.2112 28.6936 36.1899C28.679 36.1687 28.258 34.9345 27.7575 33.4466C27.2576 31.9592 26.8123 30.6302 26.7675 30.4938C26.7114 30.3246 26.6378 30.2461 26.5339 30.2461C26.3852 30.2461 26.3821 30.3034 26.3442 36.5328L25.8511 36.5923C25.5803 36.625 24.7951 36.7393 24.1063 36.846C23.4182 36.9527 22.7598 37.0632 22.4343 37.1424L22.4359 20.1494L23.328 20.0122C23.8188 19.9368 24.9886 19.76 25.927 19.619C26.8661 19.4788 27.8728 19.3614 28.1649 19.3591ZM28.7704 21.806C28.5724 21.8129 28.2993 21.8296 28.1635 21.8441L27.9169 21.87L27.9154 26.023C28.6513 25.9324 29.0101 25.8378 29.1876 25.7548C29.4364 25.6382 29.5578 25.5125 29.7186 25.2039C29.9159 24.8251 29.9272 24.7497 29.9272 23.7751C29.9272 22.8675 29.9075 22.706 29.7596 22.4034C29.667 22.2145 29.488 22.0003 29.3613 21.9272C29.2179 21.8441 28.9949 21.7984 28.7704 21.806Z" fill="#FC042E"/>
<path fill-rule="evenodd" clip-rule="evenodd" d="M41.7054 19.1404C41.7463 19.3599 41.851 19.9177 41.9367 20.3787C42.0232 20.8397 42.3115 22.3486 42.5785 23.7316C42.8455 25.1147 43.2893 27.4465 43.5647 28.9133C43.8401 30.3802 44.1989 32.2662 44.3613 33.1045C44.5244 33.9427 44.6928 34.8342 44.7375 35.0857C44.7815 35.3371 44.8172 35.5855 44.8172 35.6382C44.8164 35.7129 44.3924 35.7228 42.8251 35.6854C41.7296 35.6595 40.8254 35.6336 40.8147 35.6283C40.8048 35.6226 40.7275 35.1899 40.6433 34.6666C40.5599 34.1423 40.4741 33.6196 40.4165 33.295H39.0889C38.093 33.295 37.7538 33.3186 37.7318 33.3902C37.7158 33.442 37.6301 33.9656 37.5413 34.5523C37.4533 35.1391 37.3722 35.6253 37.3623 35.6329C37.3521 35.6405 36.473 35.6839 35.4096 35.7296C34.3453 35.7754 33.4698 35.8036 33.4638 35.7921C33.4577 35.7807 33.4858 35.5658 33.526 35.3143C33.5662 35.0628 33.7361 34.0852 33.903 33.1426C34.0691 32.1992 34.3757 30.5022 34.5835 29.3706C34.7914 28.239 35.2169 25.9239 35.5295 24.2269C35.842 22.5291 36.1834 20.695 36.2874 20.1501C36.3913 19.6053 36.4929 19.0818 36.5119 18.988C36.5438 18.8334 36.5984 18.8143 37.0596 18.793C37.3411 18.78 38.485 18.7632 41.6303 18.7404L41.7054 19.1404ZM40.5941 23.0344C40.5683 22.9841 40.5031 23.2584 40.4485 23.644C40.3939 24.0304 40.2497 25.0324 40.1275 25.8706C40.0062 26.7088 39.8628 27.7285 39.8097 28.1369L39.7133 28.879C41.4172 28.8806 41.4931 28.8684 41.4605 28.7473C41.4407 28.6741 41.3201 27.877 41.1926 26.9756C41.066 26.0741 40.931 25.1658 40.8938 24.9562C40.8566 24.7466 40.7838 24.2498 40.733 23.8513C40.6821 23.4528 40.6192 23.0855 40.5941 23.0344Z" fill="#FC042E"/>
<path fill-rule="evenodd" clip-rule="evenodd" d="M5.93752 6.25009C6.38965 6.24628 6.77427 6.29053 7.07544 6.38121C7.32578 6.45589 7.69525 6.63575 7.89628 6.78053C8.0973 6.92455 8.37796 7.21483 8.52058 7.42438C8.66244 7.63393 8.84379 7.99361 8.92345 8.2245C9.00234 8.45462 9.1131 8.91794 9.16999 9.25323C9.24661 9.7051 9.27238 10.759 9.27238 13.33C9.27162 16.2874 9.25265 16.8925 9.14266 17.4449C9.07135 17.8008 8.94848 18.2809 8.86959 18.5118C8.79069 18.7419 8.6473 19.1023 8.55096 19.3119C8.45386 19.5214 8.24978 19.8811 8.09579 20.112C7.94255 20.3421 7.59813 20.7369 7.3311 20.9883C7.06332 21.2398 6.64079 21.5812 6.3912 21.7466C6.14162 21.9127 5.66442 22.1924 5.33063 22.3676C4.99682 22.5437 3.69125 23.0855 2.42893 23.5716C1.16661 24.0578 0.0999936 24.4555 0.05827 24.4555C0.0082063 24.4553 -0.0130505 21.6873 0.00818966 8.10261L0.431502 7.94179C0.664395 7.8534 1.65667 7.4846 2.63755 7.12188C3.61767 6.75916 4.60765 6.41627 4.83753 6.35911C5.06663 6.30196 5.56201 6.25314 5.93752 6.25009ZM6.20163 8.69466C6.06582 8.69848 5.7935 8.75867 5.59703 8.82801C5.36566 8.90879 5.22454 9.00788 5.1995 9.10618C5.17826 9.19027 5.16011 11.2903 5.15935 13.7736C5.15935 16.257 5.17598 18.3396 5.19646 18.4028C5.22908 18.5019 5.2936 18.4958 5.6706 18.3609C5.91031 18.2748 6.20921 18.1262 6.33438 18.0294C6.45955 17.9326 6.65381 17.6857 6.76533 17.4807C6.87759 17.275 7.00505 16.8849 7.04981 16.6121C7.09608 16.3233 7.12944 14.8792 7.12944 13.1449C7.12869 10.8329 7.10362 10.0549 7.01713 9.63959C6.93065 9.2243 6.85558 9.05969 6.67731 8.89662C6.51952 8.7526 6.37155 8.68932 6.20163 8.69466Z" fill="#FC042E"/>
<path d="M74.6299 6.29206C74.6921 6.26615 75.0676 6.25854 75.4644 6.27606C75.9135 6.29588 76.3846 6.37053 76.7161 6.47416C77.0082 6.56636 77.4519 6.74469 77.7023 6.87042C77.9526 6.99616 78.3623 7.24458 78.6126 7.42289C78.863 7.6012 79.2726 7.96622 79.523 8.23521C79.7733 8.50345 80.0866 8.92865 80.2193 9.17859C80.3513 9.42929 80.5342 9.89104 80.6252 10.2058C80.7512 10.6409 80.802 11.0806 80.8392 12.0537C80.8779 13.0504 80.868 13.33 80.7936 13.33C80.7412 13.33 80.3149 13.1891 79.8454 13.0176C79.3758 12.8462 78.753 12.629 78.4609 12.5353C78.1688 12.4408 77.8532 12.3242 77.7592 12.2754C77.6037 12.1946 77.5862 12.1245 77.5665 11.4821C77.549 10.9152 77.5081 10.7034 77.3579 10.4001C77.2547 10.1913 77.0696 9.96121 76.9437 9.88576C76.8185 9.81032 76.6137 9.74783 76.4885 9.74631C76.3406 9.74555 76.1949 9.81337 76.0713 9.94291C75.9105 10.1113 75.8817 10.2126 75.8832 10.6119C75.8855 11.0021 75.9302 11.1644 76.1487 11.5691C76.3247 11.8932 76.8299 12.5041 77.6644 13.4017C78.3524 14.1416 79.108 14.986 79.3432 15.2771C79.5783 15.5681 79.9129 16.0291 80.0858 16.3019C80.2596 16.5739 80.4993 17.054 80.6192 17.3687C80.739 17.6827 80.8741 18.146 80.9196 18.3975C80.9658 18.6489 81.0015 19.1801 81 19.5786C80.9984 19.9764 80.9522 20.5593 80.8976 20.874C80.843 21.188 80.714 21.6338 80.6123 21.8647C80.5099 22.0948 80.2877 22.4377 80.1185 22.6267C79.9463 22.8179 79.6299 23.0534 79.4016 23.1601C79.0397 23.3277 78.8941 23.3499 78.1575 23.3453C77.4565 23.3407 77.2198 23.3064 76.6782 23.1266C76.3231 23.0093 75.7944 22.7936 75.5023 22.6466C75.2102 22.5002 74.7665 22.235 74.5161 22.0575C74.2658 21.8799 73.863 21.5157 73.621 21.2475C73.3471 20.9434 73.055 20.5006 72.8472 20.0739C72.6492 19.6662 72.4641 19.1404 72.392 18.7785C72.3245 18.4432 72.2494 17.7231 72.2243 17.1782C72.1917 16.4681 72.2039 16.1708 72.2661 16.1305C72.3146 16.0985 73.0285 16.2814 73.8523 16.5359C74.6762 16.7896 75.393 17.0129 75.4454 17.0312C75.5114 17.0533 75.5395 17.256 75.5372 17.6926C75.5357 18.0378 75.585 18.4927 75.6472 18.7023C75.7087 18.9118 75.8293 19.177 75.915 19.2928C76.0007 19.4079 76.1737 19.5534 76.2989 19.6167C76.424 19.6792 76.6372 19.7318 76.773 19.7326C76.9315 19.7341 77.0794 19.6731 77.1879 19.5611C77.285 19.4613 77.3768 19.2425 77.4057 19.0452C77.4375 18.8234 77.4133 18.5537 77.3374 18.2832C77.2729 18.0523 77.0893 17.669 76.93 17.4313C76.7707 17.1927 76.0523 16.3355 75.3339 15.5262C74.6148 14.7162 73.8508 13.8139 73.6353 13.5205C73.4199 13.2272 73.1324 12.7471 72.9966 12.4537C72.8608 12.1603 72.678 11.6284 72.5892 11.2726C72.4739 10.8055 72.4292 10.3901 72.4307 9.78664C72.4314 9.32562 72.48 8.74267 72.5376 8.49121C72.5961 8.23974 72.7622 7.82824 72.9071 7.57678C73.0512 7.32532 73.2849 7.01445 73.426 6.88642C73.5663 6.75917 73.869 6.58387 74.0989 6.497C74.328 6.4109 74.5669 6.31874 74.6299 6.29206Z" fill="#FC042E"/>
<path fill-rule="evenodd" clip-rule="evenodd" d="M63.2052 2.85226C63.3343 2.87895 64.498 3.17462 65.7913 3.50913C67.7789 4.02273 68.2667 4.17741 68.9396 4.5066C69.6034 4.83122 69.8325 4.99202 70.3112 5.47438C70.7056 5.87138 70.959 6.2082 71.1221 6.54805C71.2518 6.82009 71.4126 7.24911 71.4786 7.50058C71.5454 7.75204 71.6387 8.31747 71.6858 8.75791C71.7518 9.36447 71.751 9.79809 71.6827 10.5487C71.6334 11.0935 71.5484 11.7107 71.4938 11.9203C71.4392 12.1298 71.3231 12.4552 71.2351 12.6442C71.1479 12.8324 70.9537 13.0984 70.8042 13.2348C70.6548 13.3712 70.4128 13.5426 70.2656 13.6158C70.1192 13.6889 70.0002 13.7834 70.0009 13.8253C70.0024 13.8673 70.2262 14.7413 70.4978 15.7685C70.7701 16.7949 71.1782 18.338 71.4065 19.1976C71.6341 20.0563 71.8208 20.8366 71.8216 20.9312C71.8223 21.0996 71.817 21.1011 71.462 20.9967C71.264 20.9381 70.4705 20.6973 69.6982 20.461C68.9277 20.2244 68.2949 20.0242 68.291 20.0145C68.2887 20.0054 68.1908 19.6205 68.0732 19.1595C67.9549 18.6985 67.6757 17.6179 67.4519 16.7591C67.2289 15.8996 66.9512 14.8442 66.8359 14.4137C66.7206 13.9832 66.6091 13.6312 66.5879 13.6318C66.5674 13.6326 66.5241 13.8993 66.493 14.2247C66.4612 14.55 66.4361 15.8706 66.4361 19.5024L66.2655 19.4682C66.1722 19.4491 65.4803 19.2913 64.7293 19.1176C63.9782 18.9439 63.2788 18.7762 62.9845 18.6893L62.97 2.80426L63.2052 2.85226ZM68.1424 5.94305C68.0688 5.94393 68.0475 6.36844 68.0475 7.81074V9.67769C68.8577 9.81713 69.0565 9.81715 69.2044 9.75925C69.319 9.7143 69.473 9.58471 69.5458 9.47193C69.6497 9.31039 69.6847 9.05816 69.7051 8.30985C69.7218 7.71092 69.6968 7.22552 69.6391 7.01062C69.5876 6.82013 69.4412 6.56179 69.3092 6.42996C69.1681 6.28822 68.9017 6.14117 68.6544 6.06725C68.4253 5.99867 68.1947 5.94229 68.1424 5.94305Z" fill="#FC042E"/>
<path d="M17.96 6.28135L16.2721 6.69361C15.3444 6.92069 14.4742 7.13481 14.0919 7.23387V8.52931C14.0919 9.2418 14.1177 9.82554 14.1488 9.8263C14.1808 9.82703 14.8202 9.6731 15.5712 9.48414C16.3222 9.29592 17.014 9.14121 17.278 9.13892L17.2401 12.5117L14.1298 13.2919L14.1108 14.6636C14.101 15.418 14.1177 16.0604 14.1488 16.0901C14.1809 16.1205 14.752 16.0093 15.4194 15.8432C16.087 15.6763 16.8722 15.4904 17.1642 15.4295C17.4563 15.3693 17.7552 15.3007 17.828 15.2771C17.9524 15.2382 17.9608 15.354 17.96 18.7785L16.0453 19.2525C14.9916 19.5131 13.3621 19.9474 12.4229 20.2187C11.4845 20.4892 10.6569 20.7308 10.5833 20.7544C10.4574 20.7956 10.4505 20.381 10.4505 4.7192L10.8488 4.60267C11.068 4.5379 11.879 4.31081 12.6505 4.0982C13.4228 3.88484 14.8391 3.51142 15.7987 3.26757C16.7584 3.02449 17.6376 2.82254 17.9608 2.81415L17.96 6.28135Z" fill="#FC042E"/>
<path d="M54.8574 1.28937C54.9047 1.2894 55.5752 1.39304 56.3466 1.52028C57.1189 1.64754 58.5693 1.90581 59.5707 2.09403C60.5721 2.28301 61.5112 2.46287 61.9224 2.55355L61.9474 3.16011C61.9611 3.49388 61.949 4.28106 61.8685 6.05274L60.9096 5.88054C60.3816 5.78605 59.6428 5.65194 59.2673 5.58184C58.8918 5.5125 58.5254 5.47819 58.4518 5.50638C58.3319 5.5521 58.3213 5.67406 58.3569 7.94641L59.4569 8.15135C60.0623 8.26489 60.7534 8.39595 61.4293 8.52931V10.2439C61.4293 11.1864 61.4043 11.9582 61.3724 11.9584C61.3413 11.9576 60.7352 11.8525 60.0259 11.7237C59.3166 11.5949 58.6513 11.5004 58.3569 11.5393V14.2818L58.6604 14.3413C58.8273 14.374 59.6299 14.5303 61.9224 14.9768L61.9603 18.4356L61.5621 18.3906C61.3436 18.3662 60.8566 18.2809 60.481 18.2017C60.1055 18.1224 59.1497 17.9387 58.3569 17.794C57.5642 17.6492 56.4293 17.4595 55.8345 17.3734C55.2406 17.2873 54.737 17.2164 54.7156 17.2163C54.6951 17.2163 54.6784 13.7613 54.6784 9.53898C54.6791 5.31664 54.7004 1.73285 54.7254 1.57587C54.7505 1.41891 54.8097 1.29013 54.8574 1.28937Z" fill="#FC042E"/>
<path d="M24.2193 1.29852C24.428 1.29548 24.8551 1.35644 25.1676 1.43493C25.4809 1.51265 25.8731 1.64678 26.04 1.73289C26.2069 1.81824 26.4481 1.98513 26.5756 2.104C26.703 2.22212 26.8988 2.45601 27.0095 2.62365C27.1203 2.79129 27.2848 3.13421 27.3759 3.38567C27.5094 3.7583 27.5466 4.06846 27.6141 6.28135L27.2447 6.34237C27.0414 6.37514 26.3624 6.47037 25.7366 6.55267C25.1107 6.63496 24.5054 6.71956 24.39 6.73938C24.1837 6.77672 24.1814 6.77285 24.1814 6.35755C24.1814 6.12742 24.1412 5.75859 24.0919 5.53838C24.0426 5.31816 23.9258 5.05221 23.8332 4.94781C23.6997 4.79769 23.5942 4.75884 23.3348 4.76341C23.1459 4.76646 22.913 4.83124 22.7871 4.91581C22.6672 4.99658 22.5216 5.15661 22.4647 5.27167C22.4078 5.38673 22.3607 5.67021 22.3607 5.90034C22.3607 6.16704 22.4161 6.42994 22.5125 6.62426C22.5959 6.7919 22.7757 7.01212 22.9107 7.11347C23.0465 7.21482 23.6185 7.56918 24.1814 7.8999C24.7451 8.23137 25.462 8.66954 25.7745 8.87452C26.0878 9.0795 26.5399 9.44602 26.7797 9.68834C27.0201 9.93141 27.2977 10.2926 27.3979 10.4915C27.498 10.6904 27.6422 11.0592 27.7196 11.3107C27.8288 11.6704 27.8584 12.0125 27.8569 12.9109C27.8554 13.7766 27.8219 14.1744 27.7173 14.5493C27.6422 14.8221 27.473 15.2671 27.3418 15.5399C27.1817 15.8721 26.9162 16.225 26.5339 16.6136C26.0711 17.0838 25.8291 17.2576 25.2435 17.5441C24.8475 17.7376 24.318 17.9502 24.0676 18.015C23.8173 18.0805 23.2711 18.1727 22.8538 18.2199C22.2819 18.2839 21.9465 18.2832 21.4883 18.2154C21.1394 18.1636 20.688 18.0325 20.4263 17.9068C20.1759 17.7864 19.8346 17.5532 19.6677 17.3886C19.5008 17.2248 19.2717 16.9039 19.1579 16.6768C19.0441 16.4497 18.8985 15.9979 18.8355 15.6732C18.7718 15.3486 18.7194 14.6887 18.7194 14.2064C18.7194 13.724 18.7369 13.33 18.7573 13.33C18.7788 13.33 19.4531 13.2104 20.2556 13.0649C21.059 12.9193 21.8016 12.7845 21.9056 12.7654C22.0937 12.7311 22.096 12.738 22.1438 13.3925C22.1741 13.8101 22.2507 14.1873 22.3524 14.4159C22.4404 14.6148 22.5807 14.8122 22.6642 14.8541C22.7476 14.896 22.9274 14.9303 23.0625 14.9303C23.1983 14.931 23.4289 14.8671 23.5745 14.7886C23.7209 14.7101 23.8992 14.547 23.9705 14.4266C24.0426 14.3055 24.123 14.0524 24.1496 13.8634C24.1761 13.6714 24.1571 13.3697 24.107 13.1776C24.041 12.9292 23.9083 12.7303 23.6223 12.4537C23.4053 12.2442 22.734 11.7755 22.1309 11.4128C21.527 11.0501 20.8284 10.6013 20.578 10.4161C20.3277 10.231 19.9582 9.91084 19.7572 9.70434C19.5561 9.49782 19.2739 9.08938 19.1306 8.79601C18.9879 8.50264 18.8324 8.05685 18.7869 7.80539C18.7376 7.53638 18.7194 6.93971 18.7429 6.35755C18.7649 5.80433 18.8324 5.21528 18.8946 5.02401C18.9561 4.83503 19.0889 4.49212 19.1898 4.26199C19.2914 4.03186 19.5114 3.65389 19.679 3.42377C19.8467 3.19364 20.1517 2.85608 20.3572 2.67395C20.5621 2.49183 20.9346 2.22741 21.1849 2.08644C21.4352 1.94547 21.8449 1.75801 22.0952 1.67038C22.3456 1.58199 22.841 1.46386 23.1952 1.40747C23.5502 1.35108 24.0107 1.30233 24.2193 1.29852Z" fill="#FC042E"/>
<path d="M44.6829 0.300306C44.9022 0.300308 45.7981 0.35285 46.6743 0.416097C47.5503 0.480093 48.2739 0.539544 48.2817 0.548706C48.2901 0.558613 48.6095 1.6978 48.9918 3.08086C49.3749 4.46387 49.7352 5.78366 49.7929 6.01464C49.8513 6.24477 49.9644 6.65628 50.1904 7.42438L50.2398 0.718598L50.6191 0.742263C50.8277 0.755219 51.5446 0.832909 52.2122 0.915206C52.8797 0.998265 53.4768 1.08359 53.5397 1.10645C53.6406 1.14303 53.6475 2.06132 53.5989 9.04828C53.5693 13.3932 53.5238 16.9649 53.4988 16.9877C53.473 17.0083 52.6445 16.9458 51.6568 16.8475C50.6685 16.75 49.8349 16.6471 49.8028 16.6189C49.7702 16.5915 49.7141 16.4482 49.6761 16.3019C49.6389 16.1555 49.2794 14.8517 48.8766 13.4062C48.4745 11.9599 48.0595 10.4686 47.9556 10.0914C47.8509 9.71426 47.7493 9.38811 47.7295 9.36753C47.7098 9.34619 47.6953 10.9579 47.6999 16.5686L47.263 16.5123C47.0225 16.481 46.254 16.4299 44.2839 16.34L44.2847 0.299487L44.6829 0.300306Z" fill="#FC042E"/>
<path d="M31.8055 0.610397C32.181 0.576869 32.5224 0.556324 32.5641 0.564706C32.6141 0.574335 32.6399 3.31829 32.6399 16.6448L31.1607 16.7675C30.3474 16.8354 29.5023 16.9123 28.8848 16.9877V0.909103L29.0934 0.873309C29.2088 0.853495 29.7117 0.800187 30.2124 0.754467C30.7131 0.708746 31.43 0.643926 31.8055 0.610397Z" fill="#FC042E"/>
<path d="M38.6709 3.69716e-05C39.1511 -0.0014863 39.7648 0.0442584 40.0364 0.100647C40.308 0.157801 40.7344 0.30182 40.9847 0.421455C41.235 0.541096 41.628 0.814624 41.8571 1.02951C42.0862 1.2444 42.3828 1.6224 42.5155 1.86929C42.6475 2.11695 42.8304 2.57565 42.9214 2.89036C43.0497 3.33309 43.0982 3.76061 43.1847 6.10915L42.1985 6.06041C41.6561 6.03373 40.8709 5.99333 39.695 5.9278L39.6351 5.22829C39.6017 4.84346 39.5418 4.39992 39.5024 4.24294C39.4621 4.08597 39.3446 3.85431 39.2399 3.72858C39.1306 3.59752 38.9455 3.48021 38.8037 3.45354C38.6679 3.42763 38.4289 3.44516 38.2726 3.49164C38.0784 3.54955 37.9297 3.66686 37.803 3.86193C37.7006 4.0189 37.5793 4.3702 37.5323 4.643C37.4754 4.976 37.4548 6.32327 37.4708 8.75791C37.495 12.3287 37.4974 12.3821 37.6658 12.7395C37.7598 12.9384 37.9131 13.1525 38.0071 13.2157C38.1012 13.2782 38.3311 13.3362 38.5192 13.3438C38.7286 13.3529 38.941 13.3087 39.0692 13.2302C39.1837 13.1594 39.3355 12.9902 39.4068 12.8538C39.5016 12.6709 39.5433 12.3485 39.601 10.6249L39.3446 10.567C39.2035 10.535 38.96 10.5091 38.8037 10.5098C38.592 10.5106 38.5131 10.4763 38.4956 10.3772C38.482 10.304 38.4623 9.93519 38.4509 9.55803C38.4395 9.18083 38.4555 8.54681 38.5412 7.42438L40.8064 7.48153C42.052 7.51277 43.105 7.55621 43.1467 7.57678C43.1938 7.6004 43.2226 8.26947 43.2233 9.34848C43.2233 10.3018 43.1907 11.5789 43.1505 12.187C43.1103 12.7951 43.0231 13.4977 42.9571 13.7491C42.8911 14.0006 42.7333 14.4289 42.6059 14.7017C42.4557 15.0225 42.2212 15.3448 41.9421 15.6161C41.7046 15.8462 41.3238 16.1267 41.0962 16.2379C40.8678 16.3492 40.4597 16.5023 40.1881 16.5785C39.8111 16.6844 39.4363 16.7157 38.5951 16.7119C37.8266 16.7088 37.3464 16.6692 37.002 16.5801C36.7304 16.51 36.2699 16.3362 35.9778 16.193C35.6238 16.0202 35.3141 15.7919 35.0485 15.5079C34.827 15.2709 34.5327 14.8381 34.3848 14.5302C34.2391 14.2262 34.0601 13.7202 33.9865 13.4062C33.8681 12.8972 33.8537 12.366 33.8537 8.56741C33.8537 4.30621 33.8537 4.29933 34.0373 3.57617C34.1374 3.17764 34.34 2.61221 34.4864 2.31884C34.6601 1.97137 34.9264 1.61249 35.2518 1.28788C35.5257 1.01432 35.9551 0.68206 36.2054 0.548706C36.4558 0.415353 36.9162 0.237808 37.2296 0.154748C37.6354 0.0465421 38.0489 0.00232302 38.6709 3.69716e-05Z" fill="#FC042E"/>
</svg>
