<svg width="714" height="555" viewBox="0 0 714 555" fill="none" xmlns="http://www.w3.org/2000/svg">
<path d="M449.743 61.6528C418.352 95.5554 380.595 136.752 365.835 153.159C351.075 169.565 338.29 183.816 337.406 184.803C336.549 185.763 286.708 197.756 226.68 211.411C166.652 225.065 114.031 237.24 109.743 238.46L101.948 240.693C124.088 250.609 154.231 263.329 183.18 275.374C212.128 287.393 235.515 297.984 235.151 298.919C234.788 299.827 199.889 337.806 157.635 383.286C115.356 428.766 62.4749 485.824 40.075 510.096C17.7011 534.368 -0.333148 554.564 0.00466969 554.979C0.342487 555.395 11.1267 549.476 23.9897 541.792C36.8527 534.134 106.417 491.042 178.606 446.055C250.769 401.068 312.174 363.012 315.032 361.506C319.606 359.066 322.256 361.117 337.12 378.587C346.397 389.49 368.329 414.515 385.844 434.14C403.358 453.791 418.56 469.885 419.626 469.885C420.691 469.911 426.642 448.599 432.826 422.51C439.011 396.447 449.535 352.135 456.214 324.073L468.349 273.064C591.185 192.954 647.288 156.326 672.261 139.997C697.233 123.695 715.943 110.015 713.838 109.625C711.734 109.262 657.969 120.58 594.381 134.806C530.767 149.031 478.432 160.453 478.042 160.168C477.678 159.882 481.42 140.361 486.409 116.816C491.399 93.271 497.739 61.7307 500.52 46.7264C503.3 31.748 506.237 15.0822 507.016 9.73466C507.796 4.38708 508.082 0 507.614 0C507.172 0 481.108 27.7503 449.743 61.6528Z" fill="#FC042E"/>
</svg>
